<svg width="147" height="24" fill="none" xmlns="http://www.w3.org/2000/svg"><path fill-rule="evenodd" clip-rule="evenodd" d="M118.704 23.74c1.2 0 2.274-.14 3.22-.421.947-.281 1.743-.673 2.387-1.175a6.387 6.387 0 0 0 1.602-1.844 8.13 8.13 0 0 0 .916-2.383c.188-.86.281-1.803.281-2.829V.265h-3.782v1.737h-.066a7.064 7.064 0 0 0-2.353-1.49A7.627 7.627 0 0 0 118.142 0c-1.508 0-2.862.358-4.062 1.075-1.2.717-2.134 1.713-2.8 2.987-.666 1.273-.999 2.705-.999 4.293 0 1.61.35 3.038 1.049 4.285.699 1.246 1.66 2.203 2.882 2.87 1.222.667 2.598 1.001 4.129 1.001 2.047 0 3.716-.673 5.004-2.018h.066v1.753c0 1.17-.43 2.14-1.288 2.912-.859.772-2.07 1.158-3.634 1.158-1.068 0-2.006-.132-2.816-.397-.809-.265-1.742-.678-2.799-1.24l-.892 3.341c.925.552 1.966.976 3.122 1.274 1.156.298 2.356.447 3.6.447zM40.014 8.554v8.256h-3.782V8.19c0-3.154-1.095-4.731-3.286-4.731-1.156 0-2.106.455-2.85 1.365-.742.91-1.114 2.153-1.114 3.73v8.24H25.2V.264h3.782v2.283h.05A6.975 6.975 0 0 1 31.385.67a6.335 6.335 0 0 1 2.8-.653c2.3 0 3.941.915 4.92 2.746h.067A6.834 6.834 0 0 1 41.732.72c1.013-.47 2.13-.703 3.352-.703 1.861 0 3.292.598 4.294 1.795 1.002 1.196 1.503 3.002 1.503 5.418v9.579H47.1v-8.62c0-3.154-1.079-4.731-3.237-4.731-1.1 0-2.017.455-2.75 1.365-.732.91-1.098 2.153-1.098 3.73zm26.353 6.022c-1.255 1.655-3.006 2.482-5.252 2.482a8.324 8.324 0 0 1-3.179-.604 7.348 7.348 0 0 1-2.535-1.696c-.705-.728-1.26-1.621-1.668-2.68-.407-1.059-.611-2.217-.611-3.474 0-1.224.203-2.371.61-3.441.408-1.07.964-1.98 1.669-2.73A7.76 7.76 0 0 1 61.082.017c2.147 0 3.848.744 5.103 2.233h.066V.265h3.782v16.527h-3.616v-2.217h-.05zm-4.657-.96c-1.398 0-2.538-.465-3.419-1.397-.88-.932-1.321-2.132-1.321-3.599 0-1.555.454-2.804 1.362-3.747.909-.943 2.04-1.414 3.394-1.414 1.343 0 2.458.493 3.345 1.48.886.988 1.33 2.215 1.33 3.681 0 1.467-.455 2.667-1.363 3.599-.909.932-2.018 1.398-3.328 1.398zm27.112-6.55v9.744H85.04V8.04c0-.86-.077-1.588-.23-2.183-.155-.596-.392-1.067-.711-1.415a2.8 2.8 0 0 0-1.115-.753c-.424-.154-.933-.231-1.527-.231-1.3 0-2.337.44-3.114 1.323-.776.883-1.164 2.118-1.164 3.706v8.305h-3.782V.265h3.782V2.53h.05A6.957 6.957 0 0 1 79.706.66 7.373 7.373 0 0 1 82.76.018c1.894 0 3.378.576 4.451 1.728 1.074 1.153 1.61 2.926 1.61 5.32zm10.218 9.992c2.246 0 3.996-.827 5.252-2.482h.049v2.217h3.617V.265h-3.782V2.25h-.066C102.855.761 101.154.017 99.007.017a7.76 7.76 0 0 0-5.681 2.415c-.705.75-1.261 1.66-1.669 2.73a9.59 9.59 0 0 0-.61 3.44c0 1.258.203 2.416.61 3.475.408 1.059.964 1.952 1.669 2.68a7.347 7.347 0 0 0 2.535 1.696 8.324 8.324 0 0 0 3.179.604zm-2.824-4.84c.88.933 2.02 1.399 3.418 1.399 1.311 0 2.42-.466 3.328-1.398.908-.932 1.363-2.132 1.363-3.599 0-1.466-.444-2.693-1.33-3.68-.886-.988-2.001-1.481-3.344-1.481-1.354 0-2.486.471-3.394 1.414-.908.943-1.363 2.192-1.363 3.747 0 1.467.44 2.667 1.322 3.599zm19.243-.495c.886.865 2.012 1.298 3.377 1.298 1.376 0 2.497-.455 3.361-1.365.864-.91 1.296-2.065 1.296-3.466 0-1.39-.443-2.52-1.329-3.391-.886-.872-1.996-1.307-3.328-1.307-1.398 0-2.532.441-3.402 1.323-.87.883-1.305 2.024-1.305 3.425 0 1.456.443 2.617 1.33 3.482zm22.463 5.335c1.542 0 2.899-.281 4.071-.844 1.173-.562 2.133-1.323 2.882-2.283l-2.642-2.266c-1.035 1.301-2.406 1.952-4.113 1.952-1.211 0-2.237-.337-3.08-1.01-.842-.672-1.384-1.593-1.626-2.762h12.023c.066-.397.099-.9.099-1.506 0-1.599-.325-3.027-.975-4.285a7.194 7.194 0 0 0-2.807-2.961c-1.222-.717-2.632-1.075-4.228-1.075a8.194 8.194 0 0 0-3.188.62 7.575 7.575 0 0 0-2.559 1.729c-.716.739-1.278 1.638-1.685 2.696-.407 1.06-.611 2.212-.611 3.458 0 1.688.369 3.185 1.106 4.492.738 1.307 1.746 2.308 3.023 3.003 1.277.695 2.714 1.042 4.31 1.042zM133.48 6.783h8.257c-.242-1.026-.707-1.836-1.395-2.432-.688-.595-1.561-.893-2.618-.893-1.046 0-1.949.29-2.709.868-.759.58-1.271 1.398-1.535 2.457z" fill="#fff"/><path fill-rule="evenodd" clip-rule="evenodd" d="M5.571 2.857c0 1.578-1.247 2.857-2.785 2.857C1.247 5.714 0 4.435 0 2.857 0 1.28 1.247 0 2.786 0 4.324 0 5.57 1.28 5.57 2.857zm0 10.286C5.571 14.72 4.324 16 2.786 16 1.247 16 0 14.72 0 13.143c0-1.578 1.247-2.857 2.786-2.857 1.538 0 2.785 1.279 2.785 2.857zm7.243-7.429c1.539 0 2.786-1.279 2.786-2.857C15.6 1.28 14.353 0 12.814 0c-1.538 0-2.785 1.28-2.785 2.857 0 1.578 1.247 2.857 2.785 2.857z" fill="#F3603C"/><ellipse opacity=".5" cx="12.814" cy="13.257" rx="2.786" ry="2.857" fill="#F3603C"/></svg>